<svg   
  aria-hidden="true"
  version="1.1"
  style="position: absolute; width: 0; height: 0; overflow: hidden;"
  xmlns="http://www.w3.org/2000/svg"
  xmlns:xlink="http://www.w3.org/1999/xlink">
<defs>
  <symbol viewBox="0 0 32 26" id="burger">
    <path d="M28.3379 13.207H4.33789" stroke-width="2" stroke-linecap="round" stroke-linejoin="round"></path>
    <path d="M28.3379 8.00684H4.33789" stroke-width="2" stroke-linecap="round" stroke-linejoin="round"></path>
    <path d="M28.3379 18.4072H4.33789" stroke-width="2" stroke-linecap="round" stroke-linejoin="round"></path>
  </symbol>
  <symbol viewBox="0 0 16 16" id="cart">
    <g clip-path="url(#clip0_306_6849)">
      <path d="M6.0026 14.6663C6.37079 14.6663 6.66927 14.3679 6.66927 13.9997C6.66927 13.6315 6.37079 13.333 6.0026 13.333C5.63441 13.333 5.33594 13.6315 5.33594 13.9997C5.33594 14.3679 5.63441 14.6663 6.0026 14.6663Z" stroke-width="1.5" stroke-linecap="round" stroke-linejoin="round"></path>
      <path d="M13.3307 14.6663C13.6989 14.6663 13.9974 14.3679 13.9974 13.9997C13.9974 13.6315 13.6989 13.333 13.3307 13.333C12.9625 13.333 12.6641 13.6315 12.6641 13.9997C12.6641 14.3679 12.9625 14.6663 13.3307 14.6663Z" stroke-width="1.5" stroke-linecap="round" stroke-linejoin="round"></path>
      <path d="M0.664062 0.666992H3.33073L5.1174 9.59366C5.17836 9.90059 5.34533 10.1763 5.58909 10.3725C5.83285 10.5687 6.13786 10.673 6.45073 10.667H12.9307C13.2436 10.673 13.5486 10.5687 13.7924 10.3725C14.0361 10.1763 14.2031 9.90059 14.2641 9.59366L15.3307 4.00033H3.9974" stroke-width="1.5" stroke-linecap="round" stroke-linejoin="round"></path>
    </g>
    <defs>
      <clipPath id="clip0_306_6849">
        <rect width="16" height="16"></rect>
      </clipPath>
    </defs>
  </symbol>
  <symbol viewBox="0 0 32 32" id="close">
    <path d="M24 8L8 24" stroke-width="2" stroke-linecap="round" stroke-linejoin="round"></path>
    <path d="M8 8L24 24" stroke-width="2" stroke-linecap="round" stroke-linejoin="round"></path>
  </symbol>
  <symbol viewBox="0 0 28 28" id="facebook">
    <g opacity="0.8">
      <path d="M17.0804 4.06023C17.2904 4.06023 17.5004 4.06023 17.9204 4.06023V7.21023C17.7104 7.21023 17.2904 7.21023 16.8704 7.21023C16.4504 7.21023 16.0304 7.21023 15.8204 7.42023C15.6104 7.63023 15.6104 7.84023 15.6104 8.33023C15.6104 8.75023 15.6104 9.03023 15.6104 9.45023H17.9204V12.1102H15.6104V23.6602H12.0404V12.0402H10.1504V9.38023H12.0404V8.47023C12.0404 6.93023 12.2504 5.81023 12.6704 5.32023C13.3004 4.41023 14.5604 3.99023 16.4504 3.99023C16.6604 4.06023 16.8704 4.06023 17.0804 4.06023Z"></path>
    </g>
  </symbol>
  <symbol viewBox="0 0 28 28" id="instagram">
    <g opacity="0.8">
      <path d="M25.1286 9.41127C25.115 8.47121 24.9408 7.5386 24.6074 6.65939C24.0241 5.15803 22.8361 3.97084 21.3323 3.38967C20.4628 3.06307 19.5436 2.88797 18.6131 2.86811C17.4165 2.81471 17.0371 2.7998 13.9995 2.7998C10.962 2.7998 10.5726 2.7998 9.3847 2.86811C8.45551 2.88797 7.53628 3.06307 6.6668 3.38967C5.16293 3.97084 3.97377 5.15803 3.39163 6.65939C3.06449 7.52743 2.88785 8.44513 2.87044 9.37277C2.81695 10.5686 2.80078 10.9474 2.80078 13.9799C2.80078 17.0125 2.80078 17.3999 2.87044 18.5871C2.8891 19.516 3.06449 20.4324 3.39163 21.303C3.97501 22.8031 5.16293 23.9903 6.66804 24.5714C7.53379 24.9092 8.45303 25.1005 9.38594 25.1303C10.5838 25.1837 10.9632 25.1998 14.0008 25.1998C17.0384 25.1998 17.4277 25.1998 18.6156 25.1303C19.5448 25.1116 20.464 24.9365 21.3348 24.6099C22.8386 24.0275 24.0265 22.8403 24.6099 21.3402C24.9371 20.4709 25.1125 19.5545 25.1311 18.6244C25.1846 17.4297 25.2008 17.051 25.2008 14.0172C25.1983 10.9847 25.1983 10.5997 25.1286 9.41127ZM13.9921 19.7147C10.8152 19.7147 8.24156 17.1453 8.24156 13.9737C8.24156 10.8021 10.8152 8.23278 13.9921 8.23278C17.1665 8.23278 19.7426 10.8021 19.7426 13.9737C19.7426 17.1453 17.1665 19.7147 13.9921 19.7147ZM19.9715 9.35911C19.2289 9.35911 18.6305 8.76055 18.6305 8.02043C18.6305 7.2803 19.2289 6.68174 19.9715 6.68174C20.7116 6.68174 21.3111 7.2803 21.3111 8.02043C21.3111 8.76055 20.7116 9.35911 19.9715 9.35911Z"></path>
      <path d="M13.9937 17.4787C15.9287 17.4787 17.4972 15.9101 17.4972 13.9752C17.4972 12.0403 15.9287 10.4717 13.9937 10.4717C12.0588 10.4717 10.4902 12.0403 10.4902 13.9752C10.4902 15.9101 12.0588 17.4787 13.9937 17.4787Z"></path>
    </g>
  </symbol>
  <symbol viewBox="0 0 28 28" id="youtube">
    <g opacity="0.8">
      <path fill-rule="evenodd" clip-rule="evenodd" d="M21.2094 5.24937C20.0194 5.17937 17.5694 5.10938 13.8594 5.10938H13.3694C9.79937 5.10938 7.4194 5.17937 6.2294 5.31937C4.6194 5.45937 3.49937 5.87937 2.86937 6.43937C2.30937 6.92937 1.88938 7.83937 1.74938 9.02937C1.67938 9.79937 1.60938 11.4094 1.60938 13.8594V14.2094C1.60938 16.5194 1.67937 18.1294 1.81937 18.8994C2.02937 20.0194 2.3794 20.8594 3.0794 21.3494C3.7794 21.9094 4.96938 22.2594 6.64938 22.3994C7.83938 22.4694 10.2894 22.5394 13.9994 22.5394H14.4894C18.0594 22.5394 20.4394 22.4694 21.6294 22.3294C23.2394 22.1894 24.3594 21.7694 24.9894 21.2094C25.5494 20.7194 25.9694 19.8094 26.1094 18.6194C26.1794 17.8494 26.2494 16.2394 26.2494 13.7894V13.4394C26.2494 11.1294 26.1794 9.51937 26.0394 8.74937C25.8294 7.62937 25.4794 6.78937 24.7794 6.29937C24.0794 5.73937 22.8894 5.38937 21.2094 5.24937ZM18.4794 13.8594L10.7794 18.4794V9.23937L18.4794 13.8594Z"></path>
    </g>
  </symbol>
  <symbol viewBox="0 0 18 18" id="map-pin">
    <path d="M15.75 7.5C15.75 12.75 9 17.25 9 17.25C9 17.25 2.25 12.75 2.25 7.5C2.25 5.70979 2.96116 3.9929 4.22703 2.72703C5.4929 1.46116 7.20979 0.75 9 0.75C10.7902 0.75 12.5071 1.46116 13.773 2.72703C15.0388 3.9929 15.75 5.70979 15.75 7.5Z" stroke-width="1.5" stroke-linecap="round" stroke-linejoin="round"></path>
    <path d="M9 9.75C10.2426 9.75 11.25 8.74264 11.25 7.5C11.25 6.25736 10.2426 5.25 9 5.25C7.75736 5.25 6.75 6.25736 6.75 7.5C6.75 8.74264 7.75736 9.75 9 9.75Z" stroke-width="1.5" stroke-linecap="round" stroke-linejoin="round"></path>
  </symbol>
  <symbol viewBox="0 0 18 18" id="phone">
    <g clip-path="url(#clip0_301_4946)">
      <path d="M16.4981 12.6901V14.9401C16.499 15.1489 16.4562 15.3557 16.3725 15.5471C16.2888 15.7385 16.1661 15.9103 16.0122 16.0515C15.8583 16.1927 15.6765 16.3002 15.4787 16.3671C15.2808 16.434 15.0711 16.4589 14.8631 16.4401C12.5552 16.1893 10.3384 15.4007 8.39062 14.1376C6.57849 12.9861 5.04212 11.4497 3.89062 9.63757C2.6231 7.68098 1.8343 5.45332 1.58812 3.13507C1.56938 2.92767 1.59402 2.71864 1.66049 2.52129C1.72696 2.32394 1.8338 2.14259 1.97419 1.98879C2.11459 1.83499 2.28547 1.7121 2.47596 1.62796C2.66645 1.54382 2.87237 1.50027 3.08062 1.50007H5.33062C5.6946 1.49649 6.04746 1.62538 6.32344 1.86272C6.59942 2.10006 6.77968 2.42966 6.83062 2.79007C6.92559 3.51012 7.10171 4.21712 7.35562 4.89757C7.45653 5.16602 7.47837 5.45776 7.41855 5.73823C7.35873 6.01871 7.21977 6.27616 7.01812 6.48007L6.06562 7.43257C7.13329 9.31023 8.68796 10.8649 10.5656 11.9326L11.5181 10.9801C11.722 10.7784 11.9795 10.6395 12.26 10.5796C12.5404 10.5198 12.8322 10.5417 13.1006 10.6426C13.7811 10.8965 14.4881 11.0726 15.2081 11.1676C15.5724 11.219 15.9052 11.4025 16.143 11.6832C16.3809 11.9639 16.5072 12.3223 16.4981 12.6901Z" stroke-width="1.5" stroke-linecap="round" stroke-linejoin="round"></path>
    </g>
    <defs>
      <clipPath id="clip0_301_4946">
        <rect width="18" height="18"></rect>
      </clipPath>
    </defs>
  </symbol>
  <symbol viewBox="0 0 16 16" id="star">
    <g clip-path="url(#clip0_301_4952)">
      <path d="M9.7998 4.69727C9.95896 4.99878 10.249 5.20939 10.585 5.26758L14.3848 5.92383L11.6973 8.69141C11.4597 8.93598 11.3489 9.27679 11.3975 9.61426L11.9463 13.4316L8.48535 11.7305L8.36816 11.6807C8.13008 11.5961 7.86992 11.5961 7.63184 11.6807L7.51465 11.7305L4.05273 13.4316L4.60254 9.61426C4.65107 9.27679 4.54025 8.93598 4.30273 8.69141L1.61426 5.92383L5.41504 5.26758C5.75098 5.20939 6.04104 4.99878 6.2002 4.69727L8 1.28613L9.7998 4.69727Z" stroke-width="1.2"></path>
    </g>
    <defs>
      <clipPath id="clip0_301_4952">
        <rect width="16" height="16"></rect>
      </clipPath>
    </defs>
  </symbol>
  <symbol viewBox="0 0 20 20" id="lightning">
    <path d="M10.8331 1.66699L3.41094 10.5735C3.12026 10.9223 2.97492 11.0967 2.9727 11.244C2.97077 11.3721 3.02783 11.4939 3.12744 11.5744C3.24201 11.667 3.46904 11.667 3.92308 11.667H9.99972L9.16639 18.3337L16.5885 9.42711C16.8792 9.07831 17.0245 8.9039 17.0267 8.75661C17.0287 8.62856 16.9716 8.50674 16.872 8.42625C16.7574 8.33366 16.5304 8.33366 16.0764 8.33366H9.99972L10.8331 1.66699Z" stroke-width="1.5" stroke-linecap="round" stroke-linejoin="round"></path>
  </symbol>
  <symbol viewBox="0 0 16 16" id="search">
    <path d="M7.33333 12.6667C10.2789 12.6667 12.6667 10.2789 12.6667 7.33333C12.6667 4.38781 10.2789 2 7.33333 2C4.38781 2 2 4.38781 2 7.33333C2 10.2789 4.38781 12.6667 7.33333 12.6667Z" stroke-width="1.5" stroke-linecap="round" stroke-linejoin="round"></path>
    <path d="M13.9996 13.9996L11.0996 11.0996" stroke-width="1.5" stroke-linecap="round" stroke-linejoin="round"></path>
  </symbol>
  <symbol viewBox="0 0 14 14" id="filter">
    <path d="M12.8307 1.75H1.16406L5.83073 7.26833V11.0833L8.16406 12.25V7.26833L12.8307 1.75Z" stroke-width="1.5" stroke-linecap="round" stroke-linejoin="round"></path>
  </symbol>
  <symbol viewBox="0 0 16 16" id="arrow-down">
    <path d="M4 6L8 10L12 6" stroke-width="1.5" stroke-linecap="round" stroke-linejoin="round"></path>
  </symbol>
  <symbol viewBox="0 0 6 12" id="pag-left">
    <path d="M1.90613 6.42567C1.82803 6.3482 1.76603 6.25604 1.72372 6.15449C1.68142 6.05294 1.65964 5.94401 1.65964 5.834C1.65964 5.72399 1.68142 5.61507 1.72372 5.51352C1.76603 5.41197 1.82803 5.31981 1.90613 5.24234L5.73113 1.42566C5.80924 1.34819 5.87124 1.25603 5.91354 1.15448C5.95585 1.05293 5.97763 0.944005 5.97763 0.833995C5.97763 0.723985 5.95585 0.615064 5.91354 0.513514C5.87124 0.411964 5.80924 0.319797 5.73113 0.242327C5.575 0.0871181 5.36379 0 5.14363 0C4.92348 0 4.71227 0.0871181 4.55613 0.242327L0.731133 4.06733C0.262965 4.53609 0 5.1715 0 5.834C0 6.49651 0.262965 7.13192 0.731133 7.60067L4.55613 11.4257C4.71135 11.5796 4.92085 11.6664 5.13947 11.6673C5.24914 11.668 5.35786 11.647 5.45939 11.6055C5.56092 11.564 5.65327 11.5029 5.73113 11.4257C5.80924 11.3482 5.87124 11.256 5.91354 11.1545C5.95585 11.0529 5.97763 10.944 5.97763 10.834C5.97763 10.724 5.95585 10.6151 5.91354 10.5135C5.87124 10.412 5.80924 10.3198 5.73113 10.2423L1.90613 6.42567Z"></path>
  </symbol>
  <symbol viewBox="0 0 6 12" id="pag-right">
    <path d="M4.07141 6.42567C4.14951 6.3482 4.21151 6.25603 4.25382 6.15448C4.29612 6.05293 4.3179 5.94401 4.3179 5.834C4.3179 5.72399 4.29612 5.61507 4.25382 5.51352C4.21151 5.41197 4.14951 5.3198 4.07141 5.24233L0.246406 1.42566C0.168299 1.34819 0.106303 1.25603 0.0639955 1.15448C0.0216882 1.05293 -9.30601e-05 0.944005 -9.30601e-05 0.833995C-9.30601e-05 0.723985 0.0216882 0.615063 0.0639955 0.513514C0.106303 0.411964 0.168299 0.319797 0.246406 0.242327C0.402541 0.087118 0.613751 0 0.833906 0C1.05406 0 1.26527 0.087118 1.42141 0.242327L5.24641 4.06733C5.71457 4.53608 5.97754 5.1715 5.97754 5.834C5.97754 6.4965 5.71457 7.13192 5.24641 7.60067L1.42141 11.4257C1.26619 11.5796 1.05669 11.6664 0.838072 11.6673C0.7284 11.668 0.619681 11.647 0.51815 11.6055C0.416618 11.564 0.324272 11.5029 0.246406 11.4257C0.168299 11.3482 0.106303 11.256 0.0639955 11.1545C0.0216882 11.0529 -9.30601e-05 10.944 -9.30601e-05 10.834C-9.30601e-05 10.724 0.0216882 10.6151 0.0639955 10.5135C0.106303 10.412 0.168299 10.3198 0.246406 10.2423L4.07141 6.42567Z"></path>
  </symbol>
  <symbol viewBox="0 0 20 20" id="minus">
    <path d="M4.16602 10H15.8327" stroke-width="1.8" stroke-linecap="round" stroke-linejoin="round"></path>
  </symbol>
  <symbol viewBox="0 0 20 20" id="plus">
    <path d="M10 4.16699V15.8337" stroke-width="1.8" stroke-linecap="round" stroke-linejoin="round"></path>
    <path d="M4.16602 10H15.8327" stroke-width="1.8" stroke-linecap="round" stroke-linejoin="round"></path>
  </symbol>
  <symbol viewBox="0 0 20 20" id="x">
    <path d="M15 5L5 15" stroke-width="2" stroke-linecap="round" stroke-linejoin="round"></path>
    <path d="M5 5L15 15" stroke-width="2" stroke-linecap="round" stroke-linejoin="round"></path>
  </symbol>
</defs>
</svg>