<svg   
  aria-hidden="true"
  version="1.1"
  style="position: absolute; width: 0; height: 0; overflow: hidden;"
  xmlns="http://www.w3.org/2000/svg"
  xmlns:xlink="http://www.w3.org/1999/xlink">
<defs>
  <symbol viewBox="0 0 32 26" id="burger">
    <path d="M28.3379 13.207H4.33789" stroke-width="2" stroke-linecap="round" stroke-linejoin="round"></path>
    <path d="M28.3379 8.00684H4.33789" stroke-width="2" stroke-linecap="round" stroke-linejoin="round"></path>
    <path d="M28.3379 18.4072H4.33789" stroke-width="2" stroke-linecap="round" stroke-linejoin="round"></path>
  </symbol>
  <symbol viewBox="0 0 16 16" id="cart">
    <g clip-path="url(#clip0_306_6849)">
      <path d="M6.0026 14.6663C6.37079 14.6663 6.66927 14.3679 6.66927 13.9997C6.66927 13.6315 6.37079 13.333 6.0026 13.333C5.63441 13.333 5.33594 13.6315 5.33594 13.9997C5.33594 14.3679 5.63441 14.6663 6.0026 14.6663Z" stroke-width="1.5" stroke-linecap="round" stroke-linejoin="round"></path>
      <path d="M13.3307 14.6663C13.6989 14.6663 13.9974 14.3679 13.9974 13.9997C13.9974 13.6315 13.6989 13.333 13.3307 13.333C12.9625 13.333 12.6641 13.6315 12.6641 13.9997C12.6641 14.3679 12.9625 14.6663 13.3307 14.6663Z" stroke-width="1.5" stroke-linecap="round" stroke-linejoin="round"></path>
      <path d="M0.664062 0.666992H3.33073L5.1174 9.59366C5.17836 9.90059 5.34533 10.1763 5.58909 10.3725C5.83285 10.5687 6.13786 10.673 6.45073 10.667H12.9307C13.2436 10.673 13.5486 10.5687 13.7924 10.3725C14.0361 10.1763 14.2031 9.90059 14.2641 9.59366L15.3307 4.00033H3.9974" stroke-width="1.5" stroke-linecap="round" stroke-linejoin="round"></path>
    </g>
    <defs>
      <clipPath id="clip0_306_6849">
        <rect width="16" height="16"></rect>
      </clipPath>
    </defs>
  </symbol>
  <symbol viewBox="0 0 32 32" id="close">
    <path d="M24 8L8 24" stroke-width="2" stroke-linecap="round" stroke-linejoin="round"></path>
    <path d="M8 8L24 24" stroke-width="2" stroke-linecap="round" stroke-linejoin="round"></path>
  </symbol>
  <symbol viewBox="0 0 28 28" id="facebook">
    <g opacity="0.8">
      <path d="M17.0804 4.06023C17.2904 4.06023 17.5004 4.06023 17.9204 4.06023V7.21023C17.7104 7.21023 17.2904 7.21023 16.8704 7.21023C16.4504 7.21023 16.0304 7.21023 15.8204 7.42023C15.6104 7.63023 15.6104 7.84023 15.6104 8.33023C15.6104 8.75023 15.6104 9.03023 15.6104 9.45023H17.9204V12.1102H15.6104V23.6602H12.0404V12.0402H10.1504V9.38023H12.0404V8.47023C12.0404 6.93023 12.2504 5.81023 12.6704 5.32023C13.3004 4.41023 14.5604 3.99023 16.4504 3.99023C16.6604 4.06023 16.8704 4.06023 17.0804 4.06023Z"></path>
    </g>
  </symbol>
  <symbol viewBox="0 0 28 28" id="instagram">
    <g opacity="0.8">
      <path d="M25.1286 9.41127C25.115 8.47121 24.9408 7.5386 24.6074 6.65939C24.0241 5.15803 22.8361 3.97084 21.3323 3.38967C20.4628 3.06307 19.5436 2.88797 18.6131 2.86811C17.4165 2.81471 17.0371 2.7998 13.9995 2.7998C10.962 2.7998 10.5726 2.7998 9.3847 2.86811C8.45551 2.88797 7.53628 3.06307 6.6668 3.38967C5.16293 3.97084 3.97377 5.15803 3.39163 6.65939C3.06449 7.52743 2.88785 8.44513 2.87044 9.37277C2.81695 10.5686 2.80078 10.9474 2.80078 13.9799C2.80078 17.0125 2.80078 17.3999 2.87044 18.5871C2.8891 19.516 3.06449 20.4324 3.39163 21.303C3.97501 22.8031 5.16293 23.9903 6.66804 24.5714C7.53379 24.9092 8.45303 25.1005 9.38594 25.1303C10.5838 25.1837 10.9632 25.1998 14.0008 25.1998C17.0384 25.1998 17.4277 25.1998 18.6156 25.1303C19.5448 25.1116 20.464 24.9365 21.3348 24.6099C22.8386 24.0275 24.0265 22.8403 24.6099 21.3402C24.9371 20.4709 25.1125 19.5545 25.1311 18.6244C25.1846 17.4297 25.2008 17.051 25.2008 14.0172C25.1983 10.9847 25.1983 10.5997 25.1286 9.41127ZM13.9921 19.7147C10.8152 19.7147 8.24156 17.1453 8.24156 13.9737C8.24156 10.8021 10.8152 8.23278 13.9921 8.23278C17.1665 8.23278 19.7426 10.8021 19.7426 13.9737C19.7426 17.1453 17.1665 19.7147 13.9921 19.7147ZM19.9715 9.35911C19.2289 9.35911 18.6305 8.76055 18.6305 8.02043C18.6305 7.2803 19.2289 6.68174 19.9715 6.68174C20.7116 6.68174 21.3111 7.2803 21.3111 8.02043C21.3111 8.76055 20.7116 9.35911 19.9715 9.35911Z"></path>
      <path d="M13.9937 17.4787C15.9287 17.4787 17.4972 15.9101 17.4972 13.9752C17.4972 12.0403 15.9287 10.4717 13.9937 10.4717C12.0588 10.4717 10.4902 12.0403 10.4902 13.9752C10.4902 15.9101 12.0588 17.4787 13.9937 17.4787Z"></path>
    </g>
  </symbol>
  <symbol viewBox="0 0 28 28" id="youtube">
    <g opacity="0.8">
      <path fill-rule="evenodd" clip-rule="evenodd" d="M21.2094 5.24937C20.0194 5.17937 17.5694 5.10938 13.8594 5.10938H13.3694C9.79937 5.10938 7.4194 5.17937 6.2294 5.31937C4.6194 5.45937 3.49937 5.87937 2.86937 6.43937C2.30937 6.92937 1.88938 7.83937 1.74938 9.02937C1.67938 9.79937 1.60938 11.4094 1.60938 13.8594V14.2094C1.60938 16.5194 1.67937 18.1294 1.81937 18.8994C2.02937 20.0194 2.3794 20.8594 3.0794 21.3494C3.7794 21.9094 4.96938 22.2594 6.64938 22.3994C7.83938 22.4694 10.2894 22.5394 13.9994 22.5394H14.4894C18.0594 22.5394 20.4394 22.4694 21.6294 22.3294C23.2394 22.1894 24.3594 21.7694 24.9894 21.2094C25.5494 20.7194 25.9694 19.8094 26.1094 18.6194C26.1794 17.8494 26.2494 16.2394 26.2494 13.7894V13.4394C26.2494 11.1294 26.1794 9.51937 26.0394 8.74937C25.8294 7.62937 25.4794 6.78937 24.7794 6.29937C24.0794 5.73937 22.8894 5.38937 21.2094 5.24937ZM18.4794 13.8594L10.7794 18.4794V9.23937L18.4794 13.8594Z"></path>
    </g>
  </symbol>
</defs>
</svg>